<svg width="27" height="27" viewBox="0 0 27 27" fill="none" xmlns="http://www.w3.org/2000/svg">
<path fill-rule="evenodd" clip-rule="evenodd" d="M7.59242 1C7.79713 1.00012 8.14246 1.05467 8.34697 1.10219L23.3628 6.73826C25.269 7.36675 26 8.15681 26 10.0997C26 12.0425 26 13.1054 26 13.1054V22.9816C26 24.6078 24.6223 26 22.875 26H4.125C2.37994 26 1 24.61 1 22.9816V9.65201C1 8.0247 2.37868 7.14943 4.125 7.14943H20.6604C20.6604 7.14943 7.96576 2.52107 7.7746 2.47084C7.59212 2.47084 7.45957 2.53734 7.36895 2.65737C7.27832 2.77739 7.25 2.98345 7.25 3.22553V4.67801H5.76516V3.1675C5.76516 2.44126 5.85433 1.87611 6.4251 1.39858C6.85319 1.04043 6.9783 0.999645 7.59242 1ZM22.875 8.36927H4.12502C3.1422 8.36927 2.38459 9.12758 2.38459 9.97775V22.8455C2.38459 23.9932 2.98777 24.6531 4.12502 24.6531H22.875C24.0223 24.6531 24.647 23.916 24.647 22.8455V10.0974C24.647 8.99244 23.9082 8.36927 22.875 8.36927ZM8 14C9.10457 14 10 14.8954 10 16C10 17.1046 9.10457 18 8 18C6.89543 18 6 17.1046 6 16C6 14.8954 6.89543 14 8 14Z" fill="#718096"/>
<path d="M7.59242 1L7.5928 0.350002L7.59242 1ZM8.34697 1.10219L8.49411 0.469067L8.53555 0.478698L8.57539 0.493649L8.34697 1.10219ZM23.3628 6.73826L23.1593 7.35557L23.1468 7.35144L23.1344 7.34681L23.3628 6.73826ZM20.6604 7.14943L20.8831 6.53875L20.6604 7.79943V7.14943ZM7.7746 2.47084V1.82084H7.85858L7.93979 1.84218L7.7746 2.47084ZM7.25 4.67801H7.9V5.32801H7.25V4.67801ZM5.76516 4.67801V5.32801H5.11516V4.67801H5.76516ZM6.4251 1.39858L6.84219 1.89711L6.84219 1.89711L6.4251 1.39858ZM2.38459 22.8455H1.73459H2.38459ZM4.12502 24.6531V24.0031V24.6531ZM22.875 24.6531V24.0031V24.6531ZM7.5928 0.350002C7.86773 0.350163 8.26721 0.416337 8.49411 0.469067L8.19984 1.73532C8.0177 1.693 7.72652 1.65008 7.59204 1.65L7.5928 0.350002ZM8.57539 0.493649L23.5912 6.12971L23.1344 7.34681L8.11856 1.71074L8.57539 0.493649ZM23.5664 6.12095C24.5558 6.44718 25.3608 6.8507 25.901 7.51656C26.4535 8.19754 26.65 9.05215 26.65 10.0997H25.35C25.35 9.20434 25.181 8.69249 24.8915 8.3356C24.5897 7.96359 24.076 7.65783 23.1593 7.35557L23.5664 6.12095ZM26.65 10.0997C26.65 10.1035 26.65 10.1073 26.65 10.1111C26.65 10.1148 26.65 10.1186 26.65 10.1224C26.65 10.1262 26.65 10.13 26.65 10.1337C26.65 10.1375 26.65 10.1413 26.65 10.1451C26.65 10.1488 26.65 10.1526 26.65 10.1563C26.65 10.1601 26.65 10.1639 26.65 10.1676C26.65 10.1714 26.65 10.1751 26.65 10.1789C26.65 10.1826 26.65 10.1864 26.65 10.1901C26.65 10.1938 26.65 10.1976 26.65 10.2013C26.65 10.2051 26.65 10.2088 26.65 10.2125C26.65 10.2162 26.65 10.22 26.65 10.2237C26.65 10.2274 26.65 10.2311 26.65 10.2348C26.65 10.2385 26.65 10.2423 26.65 10.246C26.65 10.2497 26.65 10.2534 26.65 10.2571C26.65 10.2608 26.65 10.2645 26.65 10.2682C26.65 10.2719 26.65 10.2756 26.65 10.2792C26.65 10.2829 26.65 10.2866 26.65 10.2903C26.65 10.294 26.65 10.2976 26.65 10.3013C26.65 10.305 26.65 10.3087 26.65 10.3123C26.65 10.316 26.65 10.3197 26.65 10.3233C26.65 10.327 26.65 10.3306 26.65 10.3343C26.65 10.3379 26.65 10.3416 26.65 10.3452C26.65 10.3489 26.65 10.3525 26.65 10.3562C26.65 10.3598 26.65 10.3634 26.65 10.3671C26.65 10.3707 26.65 10.3743 26.65 10.378C26.65 10.3816 26.65 10.3852 26.65 10.3888C26.65 10.3924 26.65 10.3961 26.65 10.3997C26.65 10.4033 26.65 10.4069 26.65 10.4105C26.65 10.4141 26.65 10.4177 26.65 10.4213C26.65 10.4249 26.65 10.4285 26.65 10.4321C26.65 10.4357 26.65 10.4393 26.65 10.4429C26.65 10.4464 26.65 10.45 26.65 10.4536C26.65 10.4572 26.65 10.4608 26.65 10.4643C26.65 10.4679 26.65 10.4715 26.65 10.475C26.65 10.4786 26.65 10.4822 26.65 10.4857C26.65 10.4893 26.65 10.4928 26.65 10.4964C26.65 10.4999 26.65 10.5035 26.65 10.507C26.65 10.5106 26.65 10.5141 26.65 10.5177C26.65 10.5212 26.65 10.5247 26.65 10.5283C26.65 10.5318 26.65 10.5353 26.65 10.5388C26.65 10.5424 26.65 10.5459 26.65 10.5494C26.65 10.5529 26.65 10.5564 26.65 10.5599C26.65 10.5634 26.65 10.567 26.65 10.5705C26.65 10.574 26.65 10.5775 26.65 10.581C26.65 10.5845 26.65 10.588 26.65 10.5914C26.65 10.5949 26.65 10.5984 26.65 10.6019C26.65 10.6054 26.65 10.6089 26.65 10.6123C26.65 10.6158 26.65 10.6193 26.65 10.6228C26.65 10.6262 26.65 10.6297 26.65 10.6332C26.65 10.6366 26.65 10.6401 26.65 10.6435C26.65 10.647 26.65 10.6504 26.65 10.6539C26.65 10.6573 26.65 10.6608 26.65 10.6642C26.65 10.6677 26.65 10.6711 26.65 10.6745C26.65 10.678 26.65 10.6814 26.65 10.6848C26.65 10.6883 26.65 10.6917 26.65 10.6951C26.65 10.6985 26.65 10.7019 26.65 10.7054C26.65 10.7088 26.65 10.7122 26.65 10.7156C26.65 10.719 26.65 10.7224 26.65 10.7258C26.65 10.7292 26.65 10.7326 26.65 10.736C26.65 10.7394 26.65 10.7428 26.65 10.7462C26.65 10.7496 26.65 10.7529 26.65 10.7563C26.65 10.7597 26.65 10.7631 26.65 10.7664C26.65 10.7698 26.65 10.7732 26.65 10.7766C26.65 10.7799 26.65 10.7833 26.65 10.7866C26.65 10.79 26.65 10.7934 26.65 10.7967C26.65 10.8001 26.65 10.8034 26.65 10.8068C26.65 10.8101 26.65 10.8134 26.65 10.8168C26.65 10.8201 26.65 10.8235 26.65 10.8268C26.65 10.8301 26.65 10.8335 26.65 10.8368C26.65 10.8401 26.65 10.8434 26.65 10.8467C26.65 10.8501 26.65 10.8534 26.65 10.8567C26.65 10.86 26.65 10.8633 26.65 10.8666C26.65 10.8699 26.65 10.8732 26.65 10.8765C26.65 10.8798 26.65 10.8831 26.65 10.8864C26.65 10.8897 26.65 10.893 26.65 10.8963C26.65 10.8995 26.65 10.9028 26.65 10.9061C26.65 10.9094 26.65 10.9126 26.65 10.9159C26.65 10.9192 26.65 10.9225 26.65 10.9257C26.65 10.929 26.65 10.9322 26.65 10.9355C26.65 10.9387 26.65 10.942 26.65 10.9452C26.65 10.9485 26.65 10.9517 26.65 10.955C26.65 10.9582 26.65 10.9615 26.65 10.9647C26.65 10.9679 26.65 10.9712 26.65 10.9744C26.65 10.9776 26.65 10.9808 26.65 10.9841C26.65 10.9873 26.65 10.9905 26.65 10.9937C26.65 10.9969 26.65 11.0001 26.65 11.0034C26.65 11.0066 26.65 11.0098 26.65 11.013C26.65 11.0162 26.65 11.0194 26.65 11.0226C26.65 11.0257 26.65 11.0289 26.65 11.0321C26.65 11.0353 26.65 11.0385 26.65 11.0417C26.65 11.0449 26.65 11.048 26.65 11.0512C26.65 11.0544 26.65 11.0575 26.65 11.0607C26.65 11.0639 26.65 11.067 26.65 11.0702C26.65 11.0733 26.65 11.0765 26.65 11.0797C26.65 11.0828 26.65 11.086 26.65 11.0891C26.65 11.0922 26.65 11.0954 26.65 11.0985C26.65 11.1017 26.65 11.1048 26.65 11.1079C26.65 11.1111 26.65 11.1142 26.65 11.1173C26.65 11.1204 26.65 11.1236 26.65 11.1267C26.65 11.1298 26.65 11.1329 26.65 11.136C26.65 11.1391 26.65 11.1422 26.65 11.1453C26.65 11.1484 26.65 11.1515 26.65 11.1546C26.65 11.1577 26.65 11.1608 26.65 11.1639C26.65 11.167 26.65 11.1701 26.65 11.1732C26.65 11.1762 26.65 11.1793 26.65 11.1824C26.65 11.1855 26.65 11.1885 26.65 11.1916C26.65 11.1947 26.65 11.1977 26.65 11.2008C26.65 11.2039 26.65 11.2069 26.65 11.21C26.65 11.213 26.65 11.2161 26.65 11.2191C26.65 11.2222 26.65 11.2252 26.65 11.2282C26.65 11.2313 26.65 11.2343 26.65 11.2374C26.65 11.2404 26.65 11.2434 26.65 11.2464C26.65 11.2495 26.65 11.2525 26.65 11.2555C26.65 11.2585 26.65 11.2615 26.65 11.2646C26.65 11.2676 26.65 11.2706 26.65 11.2736C26.65 11.2766 26.65 11.2796 26.65 11.2826C26.65 11.2856 26.65 11.2886 26.65 11.2916C26.65 11.2946 26.65 11.2975 26.65 11.3005C26.65 11.3035 26.65 11.3065 26.65 11.3095C26.65 11.3124 26.65 11.3154 26.65 11.3184C26.65 11.3214 26.65 11.3243 26.65 11.3273C26.65 11.3302 26.65 11.3332 26.65 11.3362C26.65 11.3391 26.65 11.3421 26.65 11.345C26.65 11.348 26.65 11.3509 26.65 11.3538C26.65 11.3568 26.65 11.3597 26.65 11.3627C26.65 11.3656 26.65 11.3685 26.65 11.3715C26.65 11.3744 26.65 11.3773 26.65 11.3802C26.65 11.3831 26.65 11.3861 26.65 11.389C26.65 11.3919 26.65 11.3948 26.65 11.3977C26.65 11.4006 26.65 11.4035 26.65 11.4064C26.65 11.4093 26.65 11.4122 26.65 11.4151C26.65 11.418 26.65 11.4209 26.65 11.4238C26.65 11.4266 26.65 11.4295 26.65 11.4324C26.65 11.4353 26.65 11.4382 26.65 11.441C26.65 11.4439 26.65 11.4468 26.65 11.4496C26.65 11.4525 26.65 11.4553 26.65 11.4582C26.65 11.4611 26.65 11.4639 26.65 11.4668C26.65 11.4696 26.65 11.4725 26.65 11.4753C26.65 11.4781 26.65 11.481 26.65 11.4838C26.65 11.4867 26.65 11.4895 26.65 11.4923C26.65 11.4951 26.65 11.498 26.65 11.5008C26.65 11.5036 26.65 11.5064 26.65 11.5092C26.65 11.5121 26.65 11.5149 26.65 11.5177C26.65 11.5205 26.65 11.5233 26.65 11.5261C26.65 11.5289 26.65 11.5317 26.65 11.5345C26.65 11.5373 26.65 11.54 26.65 11.5428C26.65 11.5456 26.65 11.5484 26.65 11.5512C26.65 11.554 26.65 11.5567 26.65 11.5595C26.65 11.5623 26.65 11.565 26.65 11.5678C26.65 11.5706 26.65 11.5733 26.65 11.5761C26.65 11.5788 26.65 11.5816 26.65 11.5843C26.65 11.5871 26.65 11.5898 26.65 11.5926C26.65 11.5953 26.65 11.5981 26.65 11.6008C26.65 11.6035 26.65 11.6063 26.65 11.609C26.65 11.6117 26.65 11.6145 26.65 11.6172C26.65 11.6199 26.65 11.6226 26.65 11.6253C26.65 11.628 26.65 11.6308 26.65 11.6335C26.65 11.6362 26.65 11.6389 26.65 11.6416C26.65 11.6443 26.65 11.647 26.65 11.6497C26.65 11.6524 26.65 11.655 26.65 11.6577C26.65 11.6604 26.65 11.6631 26.65 11.6658C26.65 11.6685 26.65 11.6711 26.65 11.6738C26.65 11.6765 26.65 11.6791 26.65 11.6818C26.65 11.6845 26.65 11.6871 26.65 11.6898C26.65 11.6924 26.65 11.6951 26.65 11.6977C26.65 11.7004 26.65 11.703 26.65 11.7057C26.65 11.7083 26.65 11.711 26.65 11.7136C26.65 11.7162 26.65 11.7189 26.65 11.7215C26.65 11.7241 26.65 11.7267 26.65 11.7294C26.65 11.732 26.65 11.7346 26.65 11.7372C26.65 11.7398 26.65 11.7424 26.65 11.7451C26.65 11.7477 26.65 11.7503 26.65 11.7529C26.65 11.753 26.65 11.7838 26.65 11.7839C26.65 11.7863 26.65 11.9039 26.65 11.9045C26.65 11.9089 26.65 12.0171 26.65 12.0196C26.65 12.0259 26.65 12.1247 26.65 12.1291C26.65 12.1494 26.65 12.3184 26.65 12.3311C26.65 12.5414 26.65 12.823 26.65 12.909C26.65 12.9726 26.65 12.9389 26.65 12.9945C26.65 13.0676 26.65 12.991 26.65 13.056C26.65 13.0952 26.65 13.0404 26.65 13.0776C26.65 13.1192 26.65 13.0534 26.65 13.093C26.65 13.1372 26.65 13.0602 26.65 13.1023C26.65 13.1251 26.65 13.0824 26.65 13.1047C26.65 13.1162 26.65 13.0938 26.65 13.1052C26.65 13.1111 26.65 13.0996 26.65 13.1054C26.65 13.1054 26.65 13.1054 26.65 13.1054C26.65 13.1054 26.65 13.1054 26 13.1054C25.35 13.1054 25.35 13.1054 25.35 13.1054C25.35 13.1054 25.35 13.1054 25.35 13.1054C25.35 13.0996 25.35 13.1111 25.35 13.1052C25.35 13.0938 25.35 13.1162 25.35 13.1047C25.35 13.0824 25.35 13.1251 25.35 13.1023C25.35 13.0602 25.35 13.1372 25.35 13.093C25.35 13.0534 25.35 13.1192 25.35 13.0776C25.35 13.0404 25.35 13.0952 25.35 13.056C25.35 12.991 25.35 13.0676 25.35 12.9945C25.35 12.9389 25.35 12.9726 25.35 12.909C25.35 12.823 25.35 12.5414 25.35 12.3311C25.35 12.3184 25.35 12.1494 25.35 12.1291C25.35 12.1247 25.35 12.0259 25.35 12.0196C25.35 12.0171 25.35 11.9089 25.35 11.9045C25.35 11.9039 25.35 11.7863 25.35 11.7839C25.35 11.7838 25.35 11.753 25.35 11.7529C25.35 11.7503 25.35 11.7477 25.35 11.7451C25.35 11.7424 25.35 11.7398 25.35 11.7372C25.35 11.7346 25.35 11.732 25.35 11.7294C25.35 11.7267 25.35 11.7241 25.35 11.7215C25.35 11.7189 25.35 11.7162 25.35 11.7136C25.35 11.711 25.35 11.7083 25.35 11.7057C25.35 11.703 25.35 11.7004 25.35 11.6977C25.35 11.6951 25.35 11.6924 25.35 11.6898C25.35 11.6871 25.35 11.6845 25.35 11.6818C25.35 11.6791 25.35 11.6765 25.35 11.6738C25.35 11.6711 25.35 11.6685 25.35 11.6658C25.35 11.6631 25.35 11.6604 25.35 11.6577C25.35 11.655 25.35 11.6524 25.35 11.6497C25.35 11.647 25.35 11.6443 25.35 11.6416C25.35 11.6389 25.35 11.6362 25.35 11.6335C25.35 11.6308 25.35 11.628 25.35 11.6253C25.35 11.6226 25.35 11.6199 25.35 11.6172C25.35 11.6145 25.35 11.6117 25.35 11.609C25.35 11.6063 25.35 11.6035 25.35 11.6008C25.35 11.5981 25.35 11.5953 25.35 11.5926C25.35 11.5898 25.35 11.5871 25.35 11.5843C25.35 11.5816 25.35 11.5788 25.35 11.5761C25.35 11.5733 25.35 11.5706 25.35 11.5678C25.35 11.565 25.35 11.5623 25.35 11.5595C25.35 11.5567 25.35 11.554 25.35 11.5512C25.35 11.5484 25.35 11.5456 25.35 11.5428C25.35 11.54 25.35 11.5373 25.35 11.5345C25.35 11.5317 25.35 11.5289 25.35 11.5261C25.35 11.5233 25.35 11.5205 25.35 11.5177C25.35 11.5149 25.35 11.5121 25.35 11.5092C25.35 11.5064 25.35 11.5036 25.35 11.5008C25.35 11.498 25.35 11.4951 25.35 11.4923C25.35 11.4895 25.35 11.4867 25.35 11.4838C25.35 11.481 25.35 11.4781 25.35 11.4753C25.35 11.4725 25.35 11.4696 25.35 11.4668C25.35 11.4639 25.35 11.4611 25.35 11.4582C25.35 11.4553 25.35 11.4525 25.35 11.4496C25.35 11.4468 25.35 11.4439 25.35 11.441C25.35 11.4382 25.35 11.4353 25.35 11.4324C25.35 11.4295 25.35 11.4266 25.35 11.4238C25.35 11.4209 25.35 11.418 25.35 11.4151C25.35 11.4122 25.35 11.4093 25.35 11.4064C25.35 11.4035 25.35 11.4006 25.35 11.3977C25.35 11.3948 25.35 11.3919 25.35 11.389C25.35 11.3861 25.35 11.3831 25.35 11.3802C25.35 11.3773 25.35 11.3744 25.35 11.3715C25.35 11.3685 25.35 11.3656 25.35 11.3627C25.35 11.3597 25.35 11.3568 25.35 11.3538C25.35 11.3509 25.35 11.348 25.35 11.345C25.35 11.3421 25.35 11.3391 25.35 11.3362C25.35 11.3332 25.35 11.3302 25.35 11.3273C25.35 11.3243 25.35 11.3214 25.35 11.3184C25.35 11.3154 25.35 11.3124 25.35 11.3095C25.35 11.3065 25.35 11.3035 25.35 11.3005C25.35 11.2975 25.35 11.2946 25.35 11.2916C25.35 11.2886 25.35 11.2856 25.35 11.2826C25.35 11.2796 25.35 11.2766 25.35 11.2736C25.35 11.2706 25.35 11.2676 25.35 11.2646C25.35 11.2615 25.35 11.2585 25.35 11.2555C25.35 11.2525 25.35 11.2495 25.35 11.2464C25.35 11.2434 25.35 11.2404 25.35 11.2374C25.35 11.2343 25.35 11.2313 25.35 11.2282C25.35 11.2252 25.35 11.2222 25.35 11.2191C25.35 11.2161 25.35 11.213 25.35 11.21C25.35 11.2069 25.35 11.2039 25.35 11.2008C25.35 11.1977 25.35 11.1947 25.35 11.1916C25.35 11.1885 25.35 11.1855 25.35 11.1824C25.35 11.1793 25.35 11.1762 25.35 11.1732C25.35 11.1701 25.35 11.167 25.35 11.1639C25.35 11.1608 25.35 11.1577 25.35 11.1546C25.35 11.1515 25.35 11.1484 25.35 11.1453C25.35 11.1422 25.35 11.1391 25.35 11.136C25.35 11.1329 25.35 11.1298 25.35 11.1267C25.35 11.1236 25.35 11.1204 25.35 11.1173C25.35 11.1142 25.35 11.1111 25.35 11.1079C25.35 11.1048 25.35 11.1017 25.35 11.0985C25.35 11.0954 25.35 11.0922 25.35 11.0891C25.35 11.086 25.35 11.0828 25.35 11.0797C25.35 11.0765 25.35 11.0733 25.35 11.0702C25.35 11.067 25.35 11.0639 25.35 11.0607C25.35 11.0575 25.35 11.0544 25.35 11.0512C25.35 11.048 25.35 11.0449 25.35 11.0417C25.35 11.0385 25.35 11.0353 25.35 11.0321C25.35 11.0289 25.35 11.0257 25.35 11.0226C25.35 11.0194 25.35 11.0162 25.35 11.013C25.35 11.0098 25.35 11.0066 25.35 11.0034C25.35 11.0001 25.35 10.9969 25.35 10.9937C25.35 10.9905 25.35 10.9873 25.35 10.9841C25.35 10.9808 25.35 10.9776 25.35 10.9744C25.35 10.9712 25.35 10.9679 25.35 10.9647C25.35 10.9615 25.35 10.9582 25.35 10.955C25.35 10.9517 25.35 10.9485 25.35 10.9452C25.35 10.942 25.35 10.9387 25.35 10.9355C25.35 10.9322 25.35 10.929 25.35 10.9257C25.35 10.9225 25.35 10.9192 25.35 10.9159C25.35 10.9126 25.35 10.9094 25.35 10.9061C25.35 10.9028 25.35 10.8995 25.35 10.8963C25.35 10.893 25.35 10.8897 25.35 10.8864C25.35 10.8831 25.35 10.8798 25.35 10.8765C25.35 10.8732 25.35 10.8699 25.35 10.8666C25.35 10.8633 25.35 10.86 25.35 10.8567C25.35 10.8534 25.35 10.8501 25.35 10.8467C25.35 10.8434 25.35 10.8401 25.35 10.8368C25.35 10.8335 25.35 10.8301 25.35 10.8268C25.35 10.8235 25.35 10.8201 25.35 10.8168C25.35 10.8134 25.35 10.8101 25.35 10.8068C25.35 10.8034 25.35 10.8001 25.35 10.7967C25.35 10.7934 25.35 10.79 25.35 10.7866C25.35 10.7833 25.35 10.7799 25.35 10.7766C25.35 10.7732 25.35 10.7698 25.35 10.7664C25.35 10.7631 25.35 10.7597 25.35 10.7563C25.35 10.7529 25.35 10.7496 25.35 10.7462C25.35 10.7428 25.35 10.7394 25.35 10.736C25.35 10.7326 25.35 10.7292 25.35 10.7258C25.35 10.7224 25.35 10.719 25.35 10.7156C25.35 10.7122 25.35 10.7088 25.35 10.7054C25.35 10.7019 25.35 10.6985 25.35 10.6951C25.35 10.6917 25.35 10.6883 25.35 10.6848C25.35 10.6814 25.35 10.678 25.35 10.6745C25.35 10.6711 25.35 10.6677 25.35 10.6642C25.35 10.6608 25.35 10.6573 25.35 10.6539C25.35 10.6504 25.35 10.647 25.35 10.6435C25.35 10.6401 25.35 10.6366 25.35 10.6332C25.35 10.6297 25.35 10.6262 25.35 10.6228C25.35 10.6193 25.35 10.6158 25.35 10.6123C25.35 10.6089 25.35 10.6054 25.35 10.6019C25.35 10.5984 25.35 10.5949 25.35 10.5914C25.35 10.588 25.35 10.5845 25.35 10.581C25.35 10.5775 25.35 10.574 25.35 10.5705C25.35 10.567 25.35 10.5634 25.35 10.5599C25.35 10.5564 25.35 10.5529 25.35 10.5494C25.35 10.5459 25.35 10.5424 25.35 10.5388C25.35 10.5353 25.35 10.5318 25.35 10.5283C25.35 10.5247 25.35 10.5212 25.35 10.5177C25.35 10.5141 25.35 10.5106 25.35 10.507C25.35 10.5035 25.35 10.4999 25.35 10.4964C25.35 10.4928 25.35 10.4893 25.35 10.4857C25.35 10.4822 25.35 10.4786 25.35 10.475C25.35 10.4715 25.35 10.4679 25.35 10.4643C25.35 10.4608 25.35 10.4572 25.35 10.4536C25.35 10.45 25.35 10.4464 25.35 10.4429C25.35 10.4393 25.35 10.4357 25.35 10.4321C25.35 10.4285 25.35 10.4249 25.35 10.4213C25.35 10.4177 25.35 10.4141 25.35 10.4105C25.35 10.4069 25.35 10.4033 25.35 10.3997C25.35 10.3961 25.35 10.3924 25.35 10.3888C25.35 10.3852 25.35 10.3816 25.35 10.378C25.35 10.3743 25.35 10.3707 25.35 10.3671C25.35 10.3634 25.35 10.3598 25.35 10.3562C25.35 10.3525 25.35 10.3489 25.35 10.3452C25.35 10.3416 25.35 10.3379 25.35 10.3343C25.35 10.3306 25.35 10.327 25.35 10.3233C25.35 10.3197 25.35 10.316 25.35 10.3123C25.35 10.3087 25.35 10.305 25.35 10.3013C25.35 10.2976 25.35 10.294 25.35 10.2903C25.35 10.2866 25.35 10.2829 25.35 10.2792C25.35 10.2756 25.35 10.2719 25.35 10.2682C25.35 10.2645 25.35 10.2608 25.35 10.2571C25.35 10.2534 25.35 10.2497 25.35 10.246C25.35 10.2423 25.35 10.2385 25.35 10.2348C25.35 10.2311 25.35 10.2274 25.35 10.2237C25.35 10.22 25.35 10.2162 25.35 10.2125C25.35 10.2088 25.35 10.2051 25.35 10.2013C25.35 10.1976 25.35 10.1938 25.35 10.1901C25.35 10.1864 25.35 10.1826 25.35 10.1789C25.35 10.1751 25.35 10.1714 25.35 10.1676C25.35 10.1639 25.35 10.1601 25.35 10.1563C25.35 10.1526 25.35 10.1488 25.35 10.1451C25.35 10.1413 25.35 10.1375 25.35 10.1337C25.35 10.13 25.35 10.1262 25.35 10.1224C25.35 10.1186 25.35 10.1148 25.35 10.1111C25.35 10.1073 25.35 10.1035 25.35 10.0997H26.65ZM26.65 13.1054V22.9816H25.35V13.1054H26.65ZM26.65 22.9816C26.65 24.9793 24.9686 26.65 22.875 26.65V25.35C24.2761 25.35 25.35 24.2362 25.35 22.9816H26.65ZM22.875 26.65H4.125V25.35H22.875V26.65ZM4.125 26.65C2.03429 26.65 0.35 24.9821 0.35 22.9816H1.65C1.65 24.2378 2.72559 25.35 4.125 25.35V26.65ZM0.35 22.9816V9.65201H1.65V22.9816H0.35ZM0.35 9.65201C0.35 8.63105 0.793175 7.81383 1.51763 7.27048C2.22217 6.74206 3.15248 6.49943 4.125 6.49943V7.79943C3.3512 7.79943 2.71902 7.99443 2.29764 8.31048C1.89617 8.61159 1.65 9.04565 1.65 9.65201H0.35ZM4.125 6.49943H20.6604V7.79943H4.125V6.49943ZM20.6604 7.14943C20.4378 7.76011 20.4377 7.76009 20.4376 7.76006C20.4375 7.76002 20.4374 7.75997 20.4372 7.7599C20.4368 7.75976 20.4362 7.75955 20.4354 7.75927C20.4339 7.75871 20.4316 7.75787 20.4286 7.75676C20.4225 7.75454 20.4134 7.75122 20.4013 7.74684C20.3773 7.73808 20.3417 7.72508 20.2952 7.70813C20.2022 7.67422 20.0657 7.62448 19.892 7.56116C19.5445 7.43451 19.0479 7.25353 18.4514 7.0362C17.2583 6.60152 15.6656 6.02144 14.067 5.4398C12.4682 4.85814 10.8638 4.27501 9.64722 3.83418C9.03885 3.61374 8.5279 3.42905 8.16328 3.29797C7.98084 3.23239 7.8358 3.1805 7.73377 3.14435C7.60855 3.09999 7.58698 3.09361 7.60941 3.0995L7.93979 1.84218C7.98612 1.85436 8.08613 1.89002 8.16787 1.91897C8.27279 1.95614 8.42009 2.00884 8.60307 2.07462C8.96927 2.20627 9.48145 2.39141 10.0901 2.61194C11.3075 3.05307 12.9126 3.63644 14.5114 4.21815C16.1103 4.79988 17.7032 5.38003 18.8964 5.81474C19.493 6.0321 19.9896 6.2131 20.3371 6.33976C20.5109 6.40309 20.6474 6.45284 20.7404 6.48675C20.7869 6.50371 20.8226 6.51671 20.8466 6.52547C20.8586 6.52985 20.8677 6.53317 20.8738 6.5354C20.8769 6.53651 20.8792 6.53735 20.8807 6.53791C20.8815 6.53819 20.8821 6.5384 20.8825 6.53854C20.8827 6.53861 20.8828 6.53867 20.8829 6.5387C20.883 6.53874 20.8831 6.53875 20.6604 7.14943ZM7.7746 3.12084C7.76305 3.12084 7.7813 3.12265 7.81387 3.10733C7.84839 3.09111 7.87375 3.0675 7.88769 3.04903L6.8502 2.2657C7.07653 1.96593 7.41061 1.82084 7.7746 1.82084V3.12084ZM7.88769 3.04903C7.90873 3.02117 7.91709 3.00054 7.91869 2.99637C7.9203 2.99219 7.91772 2.99782 7.91404 3.01714C7.90621 3.05831 7.9 3.12555 7.9 3.22553H6.6C6.6 3.08342 6.60795 2.92659 6.63694 2.77421C6.66487 2.62739 6.72094 2.4369 6.8502 2.2657L7.88769 3.04903ZM7.9 3.22553V4.67801H6.6V3.22553H7.9ZM7.25 5.32801H5.76516V4.02801H7.25V5.32801ZM5.11516 4.67801V3.1675H6.41516V4.67801H5.11516ZM5.11516 3.1675C5.11516 2.38584 5.20961 1.56801 6.00801 0.900042L6.84219 1.89711C6.49904 2.1842 6.41516 2.49668 6.41516 3.1675H5.11516ZM6.00801 0.900043C6.22326 0.719958 6.44266 0.54705 6.72979 0.449439C7.00675 0.355285 7.29439 0.349829 7.5928 0.350002L7.59204 1.65C7.27633 1.64982 7.19435 1.66458 7.14821 1.68026C7.11223 1.69249 7.05503 1.71905 6.84219 1.89711L6.00801 0.900043ZM22.875 9.01927H4.12502V7.71927H22.875V9.01927ZM4.12502 9.01927C3.46768 9.01927 3.03459 9.51918 3.03459 9.97775H1.73459C1.73459 8.73599 2.81672 7.71927 4.12502 7.71927V9.01927ZM3.03459 9.97775V22.8455H1.73459V9.97775H3.03459ZM3.03459 22.8455C3.03459 23.3113 3.15623 23.5811 3.29964 23.7321C3.43794 23.8777 3.68219 24.0031 4.12502 24.0031L4.12502 25.3031C3.4306 25.3031 2.80464 25.0986 2.35703 24.6273C1.91454 24.1614 1.73459 23.5274 1.73459 22.8455H3.03459ZM4.12502 24.0031H22.875V25.3031H4.12502V24.0031ZM22.875 24.0031C23.3044 24.0031 23.5633 23.8694 23.718 23.7051C23.8783 23.5349 23.997 23.2569 23.997 22.8455H25.297C25.297 23.5045 25.1033 24.1303 24.6644 24.5964C24.2199 25.0683 23.5929 25.3031 22.875 25.3031V24.0031ZM23.997 22.8455V10.0974H25.297V22.8455H23.997ZM23.997 10.0974C23.997 9.69634 23.8674 9.44629 23.7041 9.29341C23.5348 9.13486 23.2629 9.01927 22.875 9.01927V7.71927C23.5204 7.71927 24.1344 7.91527 24.5928 8.34455C25.0572 8.7795 25.297 9.39353 25.297 10.0974H23.997ZM8 13.35C9.46355 13.35 10.65 14.5364 10.65 16H9.35C9.35 15.2544 8.74558 14.65 8 14.65V13.35ZM10.65 16C10.65 17.4636 9.46355 18.65 8 18.65V17.35C8.74558 17.35 9.35 16.7456 9.35 16H10.65ZM8 18.65C6.53645 18.65 5.35 17.4636 5.35 16H6.65C6.65 16.7456 7.25442 17.35 8 17.35V18.65ZM5.35 16C5.35 14.5364 6.53645 13.35 8 13.35V14.65C7.25442 14.65 6.65 15.2544 6.65 16H5.35Z" fill="#718096"/>
</svg>
