<svg width="25" height="25" viewBox="0 0 25 25" fill="none" xmlns="http://www.w3.org/2000/svg">
<path d="M0.893025 11.5042C0.896688 11.5023 0.8988 11.5016 0.899405 11.5015H3.10099C3.10162 11.5016 3.10369 11.5023 3.10723 11.5041C3.11579 11.5085 3.13431 11.5206 3.15675 11.548C3.20312 11.6046 3.25 11.7081 3.25 11.8478V23.9041C3.25 24.0434 3.2032 24.1468 3.15683 24.2034C3.13438 24.2308 3.11585 24.2429 3.10727 24.2473C3.1037 24.2492 3.10162 24.2498 3.101 24.25H0.899401C0.898804 24.2498 0.89668 24.2492 0.892985 24.2473C0.884314 24.2428 0.865725 24.2306 0.843231 24.2032C0.796777 24.1466 0.75 24.0432 0.75 23.9041V11.8478C0.75 11.7084 0.796863 11.6049 0.843306 11.5482C0.865798 11.5208 0.884376 11.5086 0.893025 11.5042Z" fill="#718096" stroke="#718096" stroke-width="1.5"/>
<path d="M7.83414 14.7918C7.83799 14.7898 7.84013 14.7892 7.84062 14.7891H10.0423C10.043 14.7892 10.045 14.7899 10.0486 14.7917C10.0571 14.7961 10.0757 14.8082 10.0981 14.8356C10.1445 14.8922 10.1913 14.9957 10.1913 15.1354V23.9032C10.1913 24.0429 10.1445 24.1464 10.0981 24.203C10.0757 24.2304 10.0571 24.2425 10.0486 24.2469C10.045 24.2487 10.043 24.2494 10.0423 24.2495H7.84053C7.84017 24.2495 7.838 24.2489 7.83395 24.2468C7.82535 24.2423 7.80688 24.2303 7.78449 24.203C7.73829 24.1466 7.69135 24.0432 7.69135 23.9032V15.1354C7.69135 14.9957 7.73822 14.8923 7.78457 14.8357C7.80701 14.8084 7.82553 14.7962 7.83414 14.7918Z" fill="#718096" stroke="#718096" stroke-width="1.5"/>
<path d="M14.7749 14.7917C14.7785 14.7899 14.7805 14.7892 14.7811 14.7891H16.9829C16.9834 14.7892 16.9855 14.7898 16.9893 14.7918C16.998 14.7962 17.0165 14.8084 17.0389 14.8357C17.0853 14.8923 17.1321 14.9957 17.1321 15.1354V23.9032C17.1321 24.0429 17.0853 24.1464 17.0389 24.2029C17.0165 24.2302 16.998 24.2424 16.9893 24.2468C16.9855 24.2488 16.9834 24.2494 16.9829 24.2495H14.7811C14.7805 24.2494 14.7784 24.2488 14.7747 24.2469C14.7662 24.2424 14.7477 24.2304 14.7253 24.2031C14.6791 24.1467 14.6321 24.0432 14.6321 23.9032V15.1354C14.6321 14.9957 14.679 14.8922 14.7254 14.8356C14.7478 14.8082 14.7663 14.7961 14.7749 14.7917Z" fill="#718096" stroke="#718096" stroke-width="1.5"/>
<path d="M21.7162 11.5041C21.7198 11.5023 21.7218 11.5016 21.7225 11.5015H23.9241C23.9247 11.5016 23.9268 11.5023 23.9304 11.5042C23.9391 11.5086 23.9577 11.5208 23.9801 11.5482C24.0266 11.6049 24.0735 11.7084 24.0735 11.8478V23.9041C24.0735 24.0429 24.0267 24.1463 23.9801 24.2031C23.9576 24.2306 23.939 24.2428 23.9303 24.2473C23.9267 24.2491 23.9246 24.2498 23.924 24.25H21.7224C21.7218 24.2498 21.7197 24.2492 21.716 24.2473C21.7074 24.2429 21.6889 24.2308 21.6666 24.2035C21.6203 24.1471 21.5735 24.0438 21.5735 23.9041V11.8478C21.5735 11.7081 21.6203 11.6046 21.6667 11.548C21.6892 11.5206 21.7077 11.5085 21.7162 11.5041Z" fill="#718096" stroke="#718096" stroke-width="1.5"/>
<path d="M12.4205 12.1818V0.363636H13.1776V12.1818H12.4205ZM14.244 4.37997C14.2132 4.04143 14.0762 3.77829 13.8331 3.59055C13.593 3.39974 13.2499 3.30433 12.8036 3.30433C12.5082 3.30433 12.262 3.3428 12.065 3.41974C11.868 3.49669 11.7203 3.60286 11.6218 3.73828C11.5233 3.87062 11.4725 4.02296 11.4695 4.19531C11.4633 4.33688 11.491 4.46153 11.5526 4.56925C11.6172 4.67696 11.7095 4.77237 11.8295 4.85547C11.9527 4.93549 12.1004 5.00627 12.2727 5.06783C12.4451 5.12938 12.639 5.18324 12.8544 5.2294L13.6669 5.41406C14.1347 5.51562 14.5471 5.65104 14.9041 5.82031C15.2642 5.98958 15.5658 6.19117 15.8089 6.42507C16.0552 6.65897 16.2414 6.92827 16.3675 7.23295C16.4937 7.53764 16.5584 7.87926 16.5614 8.25781C16.5584 8.85488 16.4076 9.36731 16.109 9.7951C15.8105 10.2229 15.3812 10.5507 14.821 10.7784C14.264 11.0062 13.5915 11.12 12.8036 11.12C12.0127 11.12 11.3233 11.0015 10.7354 10.7646C10.1476 10.5276 9.69058 10.1675 9.36435 9.6843C9.03812 9.20111 8.87038 8.5902 8.86115 7.85156H11.0494C11.0678 8.15625 11.1494 8.41016 11.294 8.61328C11.4387 8.81641 11.6372 8.97029 11.8896 9.07493C12.145 9.17957 12.4405 9.23189 12.7759 9.23189C13.0837 9.23189 13.3453 9.19034 13.5607 9.10724C13.7792 9.02415 13.947 8.90874 14.0639 8.76101C14.1809 8.61328 14.2409 8.44401 14.244 8.2532C14.2409 8.07469 14.1855 7.92235 14.0778 7.79616C13.9701 7.6669 13.8039 7.55611 13.5792 7.46378C13.3576 7.36837 13.0745 7.28066 12.7298 7.20064L11.7418 6.96982C10.9232 6.78208 10.2784 6.47893 9.80753 6.06037C9.33665 5.63873 9.10275 5.06937 9.10582 4.35227C9.10275 3.76752 9.25971 3.25509 9.5767 2.81499C9.8937 2.37488 10.3323 2.03172 10.8924 1.78551C11.4525 1.5393 12.0911 1.41619 12.8082 1.41619C13.5407 1.41619 14.1763 1.54084 14.7148 1.79013C15.2565 2.03634 15.6766 2.38258 15.9751 2.82884C16.2737 3.27509 16.426 3.79214 16.4322 4.37997H14.244Z" fill="#718096"/>
</svg>
